<svg width="25" height="24" viewBox="0 0 25 24" fill="none" xmlns="http://www.w3.org/2000/svg">
<path d="M9.06002 3.68994C7.9681 4.14193 6.97588 4.80454 6.14001 5.63994" stroke="white" stroke-linecap="round" stroke-linejoin="round"/>
<path d="M4.19 8.56006C3.73656 9.65036 3.5021 10.8192 3.5 12.0001" stroke="white" stroke-linecap="round" stroke-linejoin="round"/>
<path d="M4.19 15.4399C4.64199 16.5319 5.3046 17.5241 6.14 18.3599" stroke="white" stroke-linecap="round" stroke-linejoin="round"/>
<path d="M9.06 20.3101C10.1503 20.7635 11.3192 20.998 12.5 21.0001" stroke="white" stroke-linecap="round" stroke-linejoin="round"/>
<path d="M15.94 20.3101C17.0319 19.8581 18.0241 19.1955 18.86 18.3601" stroke="white" stroke-linecap="round" stroke-linejoin="round"/>
<path d="M20.81 15.44C21.2634 14.3497 21.4979 13.1808 21.5 12" stroke="white" stroke-linecap="round" stroke-linejoin="round"/>
<path d="M20.81 8.55989C20.358 7.46797 19.6954 6.47576 18.86 5.63989" stroke="white" stroke-linecap="round" stroke-linejoin="round"/>
<path d="M15.94 3.69C14.8497 3.23656 13.6808 3.0021 12.5 3" stroke="white" stroke-linecap="round" stroke-linejoin="round"/>
<path d="M9.5 12H15.5" stroke="white" stroke-linecap="round" stroke-linejoin="round"/>
<path d="M12.5 9V15" stroke="white" stroke-linecap="round" stroke-linejoin="round"/>
</svg>
