<svg width="107" height="111" viewBox="0 0 107 111" fill="none" xmlns="http://www.w3.org/2000/svg">
<g clip-path="url(#clip0_980_8857)">
<path d="M80.3431 55.6115C87.8381 55.6115 95.3088 55.5872 102.78 55.6318C104.186 55.6399 105.937 55.0598 106.766 56.7798C107.611 58.5322 105.937 59.4571 105.112 60.5849C103.677 62.5442 102.157 64.4427 100.597 66.3006C99.8406 67.1971 99.8729 67.8745 100.609 68.7589C102.42 70.9372 104.219 73.1318 105.868 75.4319C106.43 76.2148 107 77.5454 106.697 78.2472C106.418 78.8922 104.975 79.3303 104.041 79.3425C96.9703 79.4317 89.8958 79.3911 82.8252 79.3911C82.0248 79.3911 81.2243 79.3911 80.0399 79.3911V86.3238C80.0399 87.0662 80.1288 87.8248 80.0237 88.5509C79.7124 90.7252 80.3228 91.9665 82.5908 92.9158C86.3827 94.5019 88.4121 99.0939 87.6481 103.033C86.8395 107.199 83.4074 110.412 79.2192 110.927C75.2494 111.414 71.0329 109.219 69.5574 105.41C68.8095 103.479 67.7988 103.175 65.9958 103.191C56.8352 103.272 47.6747 103.268 38.5181 103.211C32.4785 103.175 27.1826 99.0209 25.6909 93.3255C24.1305 87.3664 26.5358 81.1314 31.961 78.2512C34.0793 77.1276 36.6585 76.6002 39.0801 76.4014C42.7588 76.0972 46.4821 76.3487 50.1851 76.3041C55.4324 76.2392 59.5357 72.1461 59.6408 66.9334C59.75 61.6193 55.7397 57.1652 50.456 57.0759C42.6456 56.9461 34.8313 57.0759 27.0169 56.9867C25.5413 56.9705 25.4807 57.9684 25.1047 58.8487C23.3058 63.0797 18.8387 65.4812 14.412 64.5928C9.83172 63.6719 6.6421 59.737 6.67444 55.0395C6.70678 50.3501 9.88428 46.61 14.6101 45.6972C18.8953 44.8697 23.516 47.2915 25.0522 51.4414C25.6141 52.9666 26.3741 53.2709 27.8335 53.2587C35.1062 53.1857 42.3829 53.1938 49.6555 53.2263C56.1803 53.2546 61.5004 57.3883 63.0043 63.5097C64.4596 69.4323 61.8683 75.5699 56.3461 78.4216C54.442 79.4033 52.1458 79.9023 49.9911 80.0605C46.3042 80.3242 42.5891 80.1213 38.882 80.1497C33.19 80.1943 28.8927 84.4294 28.9452 89.9139C28.9937 95.3213 33.2587 99.4103 38.9184 99.4225C48.2123 99.4428 57.5063 99.4063 66.8003 99.4631C68.1303 99.4712 68.8054 99.1385 69.2784 97.8039C70.1961 95.1996 72.0355 93.293 74.6672 92.4249C76.0579 91.9665 76.2681 91.1917 76.2641 89.9058C76.2236 78.9571 76.2398 68.0084 76.2398 57.0597C76.2398 56.5851 76.0902 56.0415 76.2721 55.6561C76.6643 54.8083 77.2262 54.0416 77.7194 53.2425C78.4754 53.7617 79.2475 54.2607 79.9752 54.8164C80.1531 54.9544 80.1894 55.2789 80.335 55.6115H80.3431ZM80.0399 59.5504C80.0399 64.3818 80.1045 68.9617 80.0035 73.5416C79.9671 75.1845 80.4199 75.7767 82.1218 75.7524C87.834 75.6672 93.5462 75.7281 99.2585 75.7159C99.7598 75.7159 100.265 75.578 101.15 75.4482C99.4929 73.3671 98.0942 71.5011 96.5782 69.7365C95.3169 68.2721 95.1997 66.9943 96.5297 65.473C98.0982 63.676 99.501 61.7329 101.211 59.5504H80.0358H80.0399ZM22.0647 55.1126C22.0647 51.8308 19.4612 49.2792 16.1503 49.3076C12.8718 49.336 10.3492 51.9565 10.3936 55.291C10.4341 58.4552 13.0133 60.9784 16.2352 61.0068C19.5178 61.0351 22.0647 58.4592 22.0647 55.1126ZM78.0954 107.175C81.4912 107.191 83.945 104.745 83.945 101.353C83.945 97.9784 81.4952 95.5404 78.0994 95.5363C74.7642 95.5322 72.2861 98.0635 72.3185 101.443C72.3468 104.639 74.8896 107.162 78.0954 107.179V107.175Z" fill="#667085"/>
<path d="M32.4824 16.7129C32.539 20.2745 31.2615 23.463 29.6687 26.5338C26.7217 32.2252 22.6305 37.0485 18.1392 41.5553C16.9385 42.7601 15.8026 42.9873 14.4968 41.6851C9.05544 36.2777 4.19217 30.4444 1.32191 23.2115C-3.26242 11.634 4.60047 -0.166535 16.7364 -0.000215343C25.4483 0.117425 32.6684 7.78029 32.4824 16.7088V16.7129ZM16.219 38.1924C17.2377 37.1174 18.0988 36.2818 18.879 35.3731C22.8408 30.7445 26.5923 25.9659 28.2983 19.9662C29.7819 14.7576 27.9708 9.50433 23.7099 6.26313C19.6956 3.20853 14.1532 2.90835 9.85183 5.52078C5.46559 8.18189 2.85002 13.3662 3.83237 18.2949C5.44942 26.404 10.7655 32.2414 16.2149 38.1965L16.219 38.1924Z" fill="#667085"/>
<path d="M16.3565 8.47816C20.7225 8.51062 24.1507 12.0236 24.086 16.3966C24.0213 20.7939 20.5649 24.2217 16.211 24.1974C11.8732 24.1771 8.26317 20.587 8.3319 16.3601C8.40467 11.8573 11.8773 8.44165 16.3565 8.47411V8.47816ZM16.2999 20.4207C18.5718 20.4126 20.4153 18.5709 20.4072 16.3114C20.4032 14.1127 18.4991 12.1899 16.2918 12.1575C13.9511 12.121 12.0956 14.0276 12.136 16.425C12.1764 18.7697 13.9067 20.4329 16.2959 20.4248L16.2999 20.4207Z" fill="#667085"/>
</g>
<defs>
<clipPath id="clip0_980_8857">
<rect width="107" height="111" fill="white"/>
</clipPath>
</defs>
</svg>
