<svg width="32" height="32" viewBox="0 0 32 32" fill="none" xmlns="http://www.w3.org/2000/svg">
<path fill-rule="evenodd" clip-rule="evenodd" d="M16 2C23.732 2 30 8.26801 30 16C30 23.732 23.732 30 16 30C8.26801 30 2 23.732 2 16C2 8.26801 8.26801 2 16 2ZM15.9999 3.99994C9.37252 3.99994 3.99994 9.37252 3.99994 15.9999C3.99994 22.6274 9.37252 27.9999 15.9999 27.9999C22.6274 27.9999 27.9999 22.6274 27.9999 15.9999C27.9999 9.37252 22.6274 3.99994 15.9999 3.99994Z" fill="#D0D5DD"/>
<path fill-rule="evenodd" clip-rule="evenodd" d="M28 15.9956L28 15.9683C28 9.35588 22.6274 3.99547 16 3.99547V2C23.6547 2 29.8745 8.12936 29.9982 15.7373L30 16L28 15.9956Z" fill="#0C111D"/>
</svg>
