<svg width="20" height="21" viewBox="0 0 20 21" fill="none" xmlns="http://www.w3.org/2000/svg">
<path d="M15.8334 18V13M13.3334 15.5H18.3334M18.3334 8.83329H1.66675M18.3334 10.5V7.33329C18.3334 6.39987 18.3334 5.93316 18.1518 5.57664C17.992 5.26304 17.737 5.00807 17.4234 4.84828C17.0669 4.66663 16.6002 4.66663 15.6667 4.66663H4.33342C3.39999 4.66663 2.93328 4.66663 2.57676 4.84828C2.26316 5.00807 2.00819 5.26304 1.8484 5.57664C1.66675 5.93316 1.66675 6.39987 1.66675 7.33329V13.6666C1.66675 14.6 1.66675 15.0668 1.8484 15.4233C2.00819 15.7369 2.26316 15.9918 2.57676 16.1516C2.93328 16.3333 3.39999 16.3333 4.33341 16.3333H10.0001" stroke="#0C111D" stroke-linecap="round" stroke-linejoin="round"/>
</svg>
