<svg width="24" height="24" viewBox="0 0 24 24" fill="none" xmlns="http://www.w3.org/2000/svg">
<g clip-path="url(#clip0_1867_3621)">
<path d="M1.64831e-05 8.81096C0.172854 8.40705 0.48033 8.26991 0.91305 8.27993C1.81043 8.30122 2.70843 8.28556 3.60581 8.28681C4.14874 8.28681 4.41364 8.5492 4.41364 9.08713C4.41364 11.5311 4.41364 13.975 4.41364 16.4189C4.41364 16.945 4.14812 17.2143 3.6246 17.2161C2.71908 17.2161 1.81293 17.203 0.908039 17.223C0.474693 17.2324 0.167844 17.0934 -0.000610352 16.6857L1.64831e-05 8.81096Z" fill="black"/>
<path d="M11.7192 23.9981C11.5313 23.9424 11.3434 23.9004 11.1631 23.8278C10.8307 23.6922 10.5365 23.4776 10.3059 23.2025C10.0753 22.9274 9.91538 22.6002 9.83997 22.2493C9.76457 21.8984 9.77598 21.5343 9.87321 21.1888C9.97044 20.8433 10.1506 20.5268 10.3979 20.2666C10.6453 20.0065 10.9524 19.8108 11.2926 19.6963C11.6328 19.5818 11.9958 19.5522 12.35 19.6098C12.7043 19.6675 13.0391 19.8108 13.3255 20.0273C13.6118 20.2437 13.8409 20.5268 13.993 20.852C14.0781 21.0398 14.1708 21.0931 14.3687 21.0943C15.1859 21.1012 15.9913 21.0655 16.7578 20.7361C17.7929 20.3059 18.6342 19.5109 19.1224 18.5018C19.1462 18.4535 19.1718 18.4059 19.1731 18.4034L20.5683 18.6878C20.5509 18.7478 20.53 18.8068 20.5057 18.8643C19.4255 21.1507 17.6251 22.3656 15.0983 22.4908C14.8177 22.5052 14.5347 22.487 14.2547 22.4989C14.1865 22.5021 14.0838 22.5484 14.0594 22.6035C13.7268 23.3506 13.167 23.809 12.3642 23.9693C12.351 23.9693 12.3404 23.9881 12.3285 23.9975L11.7192 23.9981Z" fill="black"/>
<path d="M19.5857 12.7217C19.5857 11.511 19.5857 10.3003 19.5857 9.08964C19.5857 8.54858 19.85 8.28494 20.3892 8.28369C21.326 8.28369 22.263 8.28369 23.2003 8.28369C23.7332 8.28369 24 8.55735 24 9.09778C24 11.5346 24 13.9713 24 16.4077C24 16.9425 23.7313 17.213 23.194 17.2143C22.2568 17.2168 21.3195 17.2168 20.3823 17.2143C19.8562 17.2143 19.587 16.945 19.5863 16.424C19.5842 15.1911 19.584 13.9571 19.5857 12.7217Z" fill="black"/>
<path d="M4.66224 7.02308L3.30835 6.83521C3.8588 3.96774 6.76322 0.259868 11.5469 0.0150146C16.3839 -0.235475 19.9189 3.25321 20.7092 6.83396L19.3735 7.02182C18.0772 3.38222 15.5535 1.32319 11.5582 1.43654C8.39829 1.52045 5.48385 3.82934 4.66224 7.02308Z" fill="black"/>
</g>
<defs>
<clipPath id="clip0_1867_3621">
<rect width="24" height="23.9975" fill="white" transform="translate(0 0.00125122)"/>
</clipPath>
</defs>
</svg>
