<svg width="18" height="18" viewBox="0 0 18 18" fill="none" xmlns="http://www.w3.org/2000/svg">
<path d="M2.25 0.75C1.42969 0.75 0.75 1.42969 0.75 2.25V15.75C0.75 16.5703 1.42969 17.25 2.25 17.25H15.75C16.5703 17.25 17.25 16.5703 17.25 15.75V2.25C17.25 1.42969 16.5703 0.75 15.75 0.75H2.25ZM2.25 2.25H15.75V15.75H11.8594V10.6875H13.8047L14.0859 8.4375H11.8594V6.98438C11.8594 6.32812 12.0205 5.88281 12.9609 5.88281H14.1797V3.84375C13.9717 3.81738 13.251 3.77344 12.4219 3.77344C10.6934 3.77344 9.51562 4.81348 9.51562 6.75V8.4375H7.54688V10.6875H9.51562V15.75H2.25V2.25Z" fill="black"/>
</svg>
