<svg width="30" height="30" viewBox="0 0 30 30" fill="none" xmlns="http://www.w3.org/2000/svg">
<path d="M12.3334 19L8.23301 23.1516C7.66107 23.7306 7.37509 24.0202 7.12929 24.0406C6.91604 24.0583 6.70724 23.9726 6.56796 23.8101C6.40743 23.6229 6.40743 23.2159 6.40743 22.402V20.3221C6.40743 19.5919 5.80945 19.0636 5.08696 18.9577V18.9577C3.33834 18.7016 1.96506 17.3283 1.70892 15.5797C1.66669 15.2914 1.66669 14.9473 1.66669 14.2592V8.06663C1.66669 5.82642 1.66669 4.70631 2.10266 3.85066C2.48615 3.09802 3.09808 2.48609 3.85072 2.1026C4.70637 1.66663 5.82648 1.66663 8.06669 1.66663H17.9334C20.1736 1.66663 21.2937 1.66663 22.1493 2.1026C22.902 2.48609 23.5139 3.09802 23.8974 3.85066C24.3334 4.70631 24.3334 5.82642 24.3334 8.06663V13.6666M24.3334 28.3333L21.4315 26.3158C21.0236 26.0322 20.8196 25.8904 20.5976 25.7899C20.4006 25.7006 20.1935 25.6357 19.9808 25.5965C19.7411 25.5523 19.4927 25.5523 18.9959 25.5523H16.6C15.1065 25.5523 14.3598 25.5523 13.7894 25.2617C13.2876 25.006 12.8797 24.5981 12.624 24.0963C12.3334 23.5259 12.3334 22.7791 12.3334 21.2857V17.9333C12.3334 16.4398 12.3334 15.6931 12.624 15.1227C12.8797 14.6209 13.2876 14.2129 13.7894 13.9573C14.3598 13.6666 15.1065 13.6666 16.6 13.6666H24.0667C25.5602 13.6666 26.3069 13.6666 26.8773 13.9573C27.3791 14.2129 27.787 14.6209 28.0427 15.1227C28.3334 15.6931 28.3334 16.4398 28.3334 17.9333V21.5523C28.3334 22.7949 28.3334 23.4161 28.1304 23.9062C27.8597 24.5596 27.3406 25.0787 26.6872 25.3494C26.1971 25.5523 25.5759 25.5523 24.3334 25.5523V28.3333Z" stroke="black" stroke-width="2" stroke-linecap="round" stroke-linejoin="round"/>
</svg>
