<svg width="26" height="26" viewBox="0 0 26 26" fill="none" xmlns="http://www.w3.org/2000/svg">
<path d="M17.734 4.71554L20.101 7.08254L24.835 2.34854M24.835 13V19.1542C24.835 21.1427 24.835 22.1369 24.448 22.8964C24.1076 23.5645 23.5644 24.1077 22.8964 24.4481C22.1369 24.835 21.1426 24.835 19.1542 24.835H6.84578C4.85731 24.835 3.86308 24.835 3.10358 24.4481C2.43552 24.1077 1.89236 23.5645 1.55196 22.8964C1.16498 22.1369 1.16498 21.1427 1.16498 19.1542V6.84584C1.16498 4.85737 1.16498 3.86314 1.55196 3.10365C1.89236 2.43558 2.43552 1.89242 3.10358 1.55202C3.86308 1.16504 4.85731 1.16504 6.84578 1.16504H13M1.33719 22.3808C1.89242 20.3834 3.72437 18.9175 5.8987 18.9175H14.1832C15.283 18.9175 15.833 18.9175 16.2903 19.0085C18.1682 19.382 19.6362 20.85 20.0097 22.728C20.1007 23.1853 20.1007 23.7352 20.1007 24.835M15.367 10.0413C15.367 12.6558 13.2475 14.7753 10.633 14.7753C8.01846 14.7753 5.89898 12.6558 5.89898 10.0413C5.89898 7.42677 8.01846 5.30729 10.633 5.30729C13.2475 5.30729 15.367 7.42677 15.367 10.0413Z" stroke="black" stroke-width="2" stroke-linecap="round" stroke-linejoin="round"/>
</svg>
