<svg width="30" height="22" viewBox="0 0 30 22" fill="none" xmlns="http://www.w3.org/2000/svg">
<path d="M28.3334 8.33329H1.66669M13.6667 13.6666H7.00002M1.66669 5.93329L1.66669 16.0666C1.66669 17.5601 1.66669 18.3068 1.95734 18.8773C2.213 19.379 2.62095 19.787 3.12271 20.0426C3.69314 20.3333 4.43988 20.3333 5.93335 20.3333L24.0667 20.3333C25.5602 20.3333 26.3069 20.3333 26.8773 20.0426C27.3791 19.787 27.787 19.379 28.0427 18.8773C28.3334 18.3068 28.3334 17.5601 28.3334 16.0666V5.93329C28.3334 4.43982 28.3334 3.69308 28.0427 3.12265C27.787 2.62089 27.3791 2.21294 26.8773 1.95728C26.3069 1.66663 25.5602 1.66663 24.0667 1.66663L5.93335 1.66663C4.43988 1.66663 3.69314 1.66663 3.12271 1.95728C2.62095 2.21294 2.213 2.62089 1.95734 3.12265C1.66669 3.69308 1.66669 4.43982 1.66669 5.93329Z" stroke="black" stroke-width="2" stroke-linecap="round" stroke-linejoin="round"/>
</svg>
