<svg width="26" height="26" viewBox="0 0 26 26" fill="none" xmlns="http://www.w3.org/2000/svg">
<path d="M7.66667 1H7.4C5.15979 1 4.03969 1 3.18404 1.43597C2.43139 1.81947 1.81947 2.43139 1.43597 3.18404C1 4.03969 1 5.15979 1 7.4V7.66667M7.66667 25H7.4C5.15979 25 4.03969 25 3.18404 24.564C2.43139 24.1805 1.81947 23.5686 1.43597 22.816C1 21.9603 1 20.8402 1 18.6V18.3333M25 7.66667V7.4C25 5.15979 25 4.03969 24.564 3.18404C24.1805 2.43139 23.5686 1.81947 22.816 1.43597C21.9603 1 20.8402 1 18.6 1H18.3333M25 18.3333V18.6C25 20.8402 25 21.9603 24.564 22.816C24.1805 23.5686 23.5686 24.1805 22.816 24.564C21.9603 25 20.8402 25 18.6 25H18.3333M7 7.66667V9.66667M19 7.66667V9.66667M11.6667 13.8001C12.7333 13.8001 13.6667 12.8668 13.6667 11.8001V7.66667M17.2669 17.2666C14.8669 19.6666 11.0003 19.6666 8.60026 17.2666" stroke="black" stroke-width="2" stroke-linecap="round" stroke-linejoin="round"/>
</svg>
