<svg width="24" height="30" viewBox="0 0 24 30" fill="none" xmlns="http://www.w3.org/2000/svg">
<path d="M14.6666 2.026V7.53339C14.6666 8.28012 14.6666 8.65349 14.812 8.93871C14.9398 9.18959 15.1438 9.39357 15.3947 9.5214C15.6799 9.66672 16.0532 9.66672 16.8 9.66672H22.3074M7.99998 20.3333L10.6666 23L16.6666 17M14.6666 1.66663H7.73331C5.4931 1.66663 4.373 1.66663 3.51735 2.1026C2.7647 2.48609 2.15278 3.09802 1.76929 3.85066C1.33331 4.70631 1.33331 5.82642 1.33331 8.06663V21.9333C1.33331 24.1735 1.33331 25.2936 1.76929 26.1493C2.15278 26.9019 2.7647 27.5138 3.51735 27.8973C4.373 28.3333 5.4931 28.3333 7.73331 28.3333H16.2666C18.5069 28.3333 19.627 28.3333 20.4826 27.8973C21.2353 27.5138 21.8472 26.9019 22.2307 26.1493C22.6666 25.2936 22.6666 24.1735 22.6666 21.9333V9.66663L14.6666 1.66663Z" stroke="black" stroke-width="2" stroke-linecap="round" stroke-linejoin="round"/>
</svg>
