<svg width="18" height="18" viewBox="0 0 18 18" fill="none" xmlns="http://www.w3.org/2000/svg">
<path d="M2.625 0.75C1.59961 0.75 0.75 1.59961 0.75 2.625V15.375C0.75 16.4004 1.59961 17.25 2.625 17.25H15.375C16.4004 17.25 17.25 16.4004 17.25 15.375V2.625C17.25 1.59961 16.4004 0.75 15.375 0.75H2.625ZM2.625 2.25H15.375C15.5889 2.25 15.75 2.41113 15.75 2.625V15.375C15.75 15.5889 15.5889 15.75 15.375 15.75H2.625C2.41113 15.75 2.25 15.5889 2.25 15.375V2.625C2.25 2.41113 2.41113 2.25 2.625 2.25ZM4.82812 3.53906C4.11621 3.53906 3.53906 4.11621 3.53906 4.82812C3.53906 5.54004 4.11621 6.11719 4.82812 6.11719C5.54004 6.11719 6.11719 5.54004 6.11719 4.82812C6.11719 4.11621 5.54004 3.53906 4.82812 3.53906ZM11.6016 6.96094C10.5264 6.96094 9.81152 7.5498 9.51562 8.10938H9.46875V7.125H7.35938V14.25H9.5625V10.7344C9.5625 9.80566 9.74707 8.90625 10.8984 8.90625C12.0322 8.90625 12.0469 9.95508 12.0469 10.7812V14.25H14.25V10.3359C14.25 8.41992 13.8428 6.96094 11.6016 6.96094ZM3.75 7.125V14.25H5.97656V7.125H3.75Z" fill="black"/>
</svg>
