<svg width="20" height="21" viewBox="0 0 20 21" fill="none" xmlns="http://www.w3.org/2000/svg">
<path d="M3.77587 13.854C3.77587 12.762 3.87187 11.826 4.06387 11.046C4.26787 10.266 4.58587 9.624 5.01787 9.12C5.44987 8.616 6.00187 8.232 6.67387 7.968C7.35787 7.704 8.18587 7.542 9.15787 7.482V3.648H10.7419V7.482C11.6419 7.542 12.4279 7.698 13.0999 7.95C13.7719 8.202 14.3299 8.58 14.7739 9.084C15.2299 9.576 15.5659 10.212 15.7819 10.992C16.0099 11.76 16.1239 12.696 16.1239 13.8V16.5H14.5219V13.836C14.5219 12.948 14.4379 12.198 14.2699 11.586C14.1139 10.962 13.8799 10.458 13.5679 10.074C13.2559 9.69 12.8599 9.402 12.3799 9.21C11.9119 9.018 11.3659 8.898 10.7419 8.85V13.548H9.15787V8.85C8.47387 8.898 7.89187 9.024 7.41187 9.228C6.93187 9.42 6.54187 9.708 6.24187 10.092C5.94187 10.476 5.71987 10.974 5.57587 11.586C5.44387 12.198 5.37787 12.942 5.37787 13.818V16.5H3.77587V13.854Z" fill="#0C111D"/>
</svg>
