<svg width="14" height="15" viewBox="0 0 14 15" fill="none" xmlns="http://www.w3.org/2000/svg">
<path d="M10.3333 1.72676C11.3468 2.31188 12.1884 3.15348 12.7735 4.16695C13.3586 5.18042 13.6667 6.33005 13.6667 7.5003C13.6667 8.67055 13.3586 9.82019 12.7735 10.8336C12.1883 11.8471 11.3467 12.6887 10.3333 13.2738C9.31978 13.8589 8.17014 14.1669 6.99989 14.1669C5.82964 14.1669 4.68001 13.8588 3.66656 13.2737C2.6531 12.6886 1.81153 11.8469 1.22642 10.8335C0.641319 9.81998 0.333302 8.67034 0.333332 7.50009L0.336665 7.28409C0.374001 6.13275 0.709031 5.01073 1.30909 4.02742C1.90915 3.04411 2.75377 2.23306 3.76059 1.67335C4.76742 1.11363 5.9021 0.824356 7.054 0.833716C8.20591 0.843077 9.33574 1.15076 10.3333 1.72676ZM6.73267 8.11076L6.76733 8.12476L6.82066 8.14209L6.874 8.15476L6.922 8.16209L7 8.16676L7.05066 8.16476L7.14067 8.15142L7.19533 8.13809L7.264 8.11209L7.31266 8.08876L7.36467 8.05809L7.40466 8.03009L7.458 7.98409L7.51333 7.92542L7.55466 7.87009L7.59 7.81009L7.61067 7.76742L7.632 7.71342L7.652 7.64076L7.662 7.57809L7.66667 7.50009V4.16676C7.66667 3.98995 7.59643 3.82038 7.4714 3.69535C7.34638 3.57033 7.17681 3.50009 7 3.50009C6.82319 3.50009 6.65362 3.57033 6.52859 3.69535C6.40357 3.82038 6.33333 3.98995 6.33333 4.16676V6.25409L5.37 5.61209C5.23406 5.52136 5.06952 5.48372 4.90765 5.50634C4.74579 5.52895 4.59787 5.61024 4.492 5.73476L4.44533 5.79676C4.39673 5.86959 4.36296 5.95129 4.34593 6.03718C4.32891 6.12307 4.32898 6.21148 4.34613 6.29734C4.36328 6.38321 4.39717 6.46486 4.44588 6.53762C4.49459 6.61039 4.55715 6.67284 4.63 6.72142L6.65533 8.07076L6.73267 8.11076Z" fill="#F79009"/>
</svg>
