<svg width="20" height="21" viewBox="0 0 20 21" fill="none" xmlns="http://www.w3.org/2000/svg">
<g clip-path="url(#clip0_4538_485)">
<path d="M13.3333 14.6667C13.3333 14.8877 13.421 15.0997 13.5773 15.256C13.7336 15.4122 13.9456 15.5 14.1666 15.5C14.3876 15.5 14.5996 15.4122 14.7558 15.256C14.9121 15.0997 14.9999 14.8877 14.9999 14.6667C14.9999 14.4457 14.9121 14.2337 14.7558 14.0775C14.5996 13.9212 14.3876 13.8334 14.1666 13.8334C13.9456 13.8334 13.7336 13.9212 13.5773 14.0775C13.421 14.2337 13.3333 14.4457 13.3333 14.6667Z" stroke="black" stroke-linecap="round" stroke-linejoin="round"/>
<path d="M5 6.33333C5 6.55435 5.0878 6.76631 5.24408 6.92259C5.40036 7.07887 5.61232 7.16667 5.83333 7.16667C6.05435 7.16667 6.26631 7.07887 6.42259 6.92259C6.57887 6.76631 6.66667 6.55435 6.66667 6.33333C6.66667 6.11232 6.57887 5.90036 6.42259 5.74408C6.26631 5.5878 6.05435 5.5 5.83333 5.5C5.61232 5.5 5.40036 5.5878 5.24408 5.74408C5.0878 5.90036 5 6.11232 5 6.33333Z" stroke="black" stroke-linecap="round" stroke-linejoin="round"/>
<path d="M5 15.5L15 5.5" stroke="black" stroke-linecap="round" stroke-linejoin="round"/>
</g>
<defs>
<clipPath id="clip0_4538_485">
<rect width="20" height="20" fill="white" transform="translate(0 0.5)"/>
</clipPath>
</defs>
</svg>
