<svg width="14" height="15" viewBox="0 0 14 15" fill="none" xmlns="http://www.w3.org/2000/svg">
<path d="M10.3333 1.72676C11.3388 2.30733 12.1753 3.14044 12.7599 4.14362C13.3445 5.14681 13.6569 6.28527 13.6663 7.44632C13.6757 8.60736 13.3816 9.75073 12.8133 10.7632C12.245 11.7757 11.4222 12.6222 10.4262 13.219C9.43016 13.8157 8.29558 14.142 7.13473 14.1655C5.97389 14.189 4.82703 13.9089 3.8077 13.3529C2.78837 12.797 1.93191 11.9844 1.32311 10.9958C0.714307 10.0071 0.374272 8.87656 0.336665 7.71609L0.333332 7.50009L0.336665 7.28409C0.374001 6.13275 0.709031 5.01073 1.30909 4.02742C1.90915 3.04411 2.75377 2.23306 3.76059 1.67335C4.76742 1.11363 5.9021 0.824356 7.054 0.833716C8.20591 0.843077 9.33574 1.15076 10.3333 1.72676ZM6.00733 5.59342C5.86765 5.51028 5.70241 5.48103 5.54267 5.51118C5.38294 5.54133 5.23972 5.6288 5.13996 5.75715C5.04021 5.88549 4.99078 6.04586 5.00097 6.20809C5.01117 6.37033 5.08029 6.52325 5.19533 6.63809L6.05666 7.50009L5.19533 8.36209L5.14 8.42476C5.03639 8.55875 4.98767 8.72716 5.00373 8.89577C5.01979 9.06439 5.09944 9.22057 5.22648 9.33259C5.35352 9.44461 5.51844 9.50408 5.68774 9.49891C5.85704 9.49374 6.01803 9.42432 6.138 9.30476L7 8.44342L7.862 9.30476L7.92466 9.36009C8.05866 9.4637 8.22707 9.51242 8.39568 9.49636C8.5643 9.4803 8.72048 9.40065 8.8325 9.27361C8.94452 9.14657 9.00399 8.98165 8.99882 8.81235C8.99365 8.64305 8.92423 8.48206 8.80466 8.36209L7.94333 7.50009L8.80466 6.63809L8.86 6.57542C8.96361 6.44143 9.01233 6.27302 8.99626 6.10441C8.9802 5.93579 8.90056 5.77961 8.77352 5.66759C8.64647 5.55557 8.48155 5.4961 8.31225 5.50127C8.14295 5.50644 7.98197 5.57586 7.862 5.69543L7 6.55676L6.138 5.69543L6.07533 5.64009L6.00733 5.59342Z" fill="#F04438"/>
</svg>
