<svg width="20" height="20" viewBox="0 0 20 20" fill="none" xmlns="http://www.w3.org/2000/svg">
<path d="M5 6.27014H10M5 9.77014H13M7.68375 15.7701H14.2C15.8802 15.7701 16.7202 15.7701 17.362 15.4432C17.9265 15.1555 18.3854 14.6966 18.673 14.1321C19 13.4904 19 12.6503 19 10.9701V5.57014C19 3.88998 19 3.04991 18.673 2.40817C18.3854 1.84368 17.9265 1.38474 17.362 1.09712C16.7202 0.770142 15.8802 0.770142 14.2 0.770142H5.8C4.11984 0.770142 3.27976 0.770142 2.63803 1.09712C2.07354 1.38474 1.6146 1.84368 1.32698 2.40817C1 3.04991 1 3.88998 1 5.57014V18.1056C1 18.6385 1 18.9049 1.10923 19.0418C1.20422 19.1608 1.34827 19.23 1.50054 19.2298C1.67563 19.2296 1.88367 19.0632 2.29976 18.7303L4.68521 16.822C5.17252 16.4321 5.41617 16.2372 5.68749 16.0986C5.9282 15.9756 6.18443 15.8857 6.44921 15.8314C6.74767 15.7701 7.0597 15.7701 7.68375 15.7701Z" stroke="#0C111D" stroke-linecap="round" stroke-linejoin="round"/>
</svg>
