<svg width="20" height="18" viewBox="0 0 20 18" fill="none" xmlns="http://www.w3.org/2000/svg">
<path d="M18.5527 -0.00293124C18.3007 0.00878751 18.0634 0.0820295 17.8525 0.164061H17.8496C17.6357 0.249022 16.6191 0.676756 15.0751 1.32422C13.5312 1.97461 11.5273 2.81836 9.53804 3.65625C5.56538 5.3291 1.66011 6.97558 1.66011 6.97558L1.70698 6.95801C1.70698 6.95801 1.43745 7.0459 1.1562 7.23926C1.01265 7.33301 0.854443 7.46191 0.716748 7.66406C0.579053 7.86621 0.467724 8.17676 0.50874 8.49609C0.576123 9.03808 0.927686 9.36328 1.17964 9.54199C1.43452 9.72363 1.67769 9.80859 1.67769 9.80859H1.68354L5.34565 11.042C5.50972 11.5693 6.46186 14.6982 6.69038 15.4189C6.82515 15.8496 6.95698 16.1191 7.12104 16.3242C7.20015 16.4297 7.2939 16.5176 7.40522 16.5879C7.44917 16.6143 7.49604 16.6348 7.54292 16.6523C7.55757 16.6611 7.57222 16.6641 7.58979 16.667L7.55171 16.6582C7.56343 16.6611 7.57222 16.6699 7.58101 16.6728C7.6103 16.6816 7.63081 16.6846 7.6689 16.6904C8.24897 16.8662 8.71479 16.5059 8.71479 16.5059L8.74116 16.4853L10.9033 14.5166L14.5273 17.2969L14.6093 17.332C15.3652 17.6631 16.1298 17.4785 16.5341 17.1533C16.9414 16.8252 17.0996 16.4062 17.0996 16.4062L17.1259 16.3389L19.9267 1.99219C20.0058 1.63769 20.0263 1.30664 19.9384 0.984373C19.8505 0.662108 19.625 0.36035 19.3525 0.199217C19.0771 0.0351545 18.8046 -0.01465 18.5527 -0.00293124ZM18.4765 1.53515C18.4736 1.58203 18.4824 1.57617 18.4619 1.66699V1.67578L15.6875 15.873C15.6757 15.8936 15.6552 15.9375 15.5996 15.9814C15.541 16.0283 15.4941 16.0576 15.2509 15.9609L10.8183 12.5625L8.14058 15.0029L8.70308 11.4111C8.70308 11.4111 15.6464 4.93945 15.9453 4.66113C16.2441 4.38281 16.1445 4.32422 16.1445 4.32422C16.165 3.98437 15.6933 4.22461 15.6933 4.22461L6.56147 9.88183L6.55854 9.86719L2.18159 8.39355V8.39062C2.17866 8.39062 2.1728 8.38769 2.16987 8.38769C2.1728 8.38769 2.19331 8.3789 2.19331 8.3789L2.21675 8.36719L2.24019 8.3584C2.24019 8.3584 6.14839 6.71191 10.121 5.03906C12.1103 4.20117 14.1142 3.35742 15.6552 2.70703C17.1962 2.05957 18.3359 1.58496 18.4003 1.55859C18.4619 1.53515 18.4326 1.53515 18.4765 1.53515Z" fill="black"/>
</svg>
