<svg width="18" height="18" viewBox="0 0 18 18" fill="none" xmlns="http://www.w3.org/2000/svg">
<path d="M17.0013 5.37102V8.95708C15.3888 8.79711 13.8512 8.19715 12.5565 7.22272V11.223C12.5562 12.3086 12.2502 13.3721 11.6735 14.2917C11.0967 15.2114 10.2726 15.95 9.29548 16.4229C8.31836 16.8958 7.2278 17.0839 6.14872 16.9656C5.06965 16.8473 4.04571 16.4275 3.19422 15.7542C2.34274 15.0809 1.69814 14.1813 1.33427 13.1586C0.97041 12.1358 0.902004 11.0313 1.13689 9.97147C1.37178 8.91165 1.90046 7.93943 2.66236 7.1662C3.42426 6.39296 4.38857 5.84999 5.4448 5.59948V9.44512C5.14174 9.67241 4.90182 9.9734 4.7478 10.3195C4.59379 10.6656 4.5308 11.0453 4.56482 11.4226C4.59884 11.7999 4.72874 12.1622 4.94218 12.4752C5.15562 12.7882 5.44552 13.0414 5.78435 13.2108C6.12318 13.3802 6.49969 13.4602 6.87813 13.4432C7.25657 13.4262 7.62438 13.3127 7.94663 13.1135C8.26887 12.9144 8.53486 12.6361 8.71933 12.3053C8.90381 11.9744 9.00064 11.6019 9.00064 11.223V1H12.6303C12.8154 2.092 13.3355 3.09939 14.1187 3.88256C14.9019 4.66574 15.9093 5.18592 17.0013 5.37102Z" stroke="black" stroke-width="1.5" stroke-linecap="round" stroke-linejoin="round"/>
</svg>
