<svg width="20" height="21" viewBox="0 0 20 21" fill="none" xmlns="http://www.w3.org/2000/svg">
<g clip-path="url(#clip0_4539_506)">
<path d="M10 16.3333H5C4.33696 16.3333 3.70107 16.0699 3.23223 15.6011C2.76339 15.1322 2.5 14.4963 2.5 13.8333V7.16663C2.5 6.50358 2.76339 5.8677 3.23223 5.39886C3.70107 4.93002 4.33696 4.66663 5 4.66663H15C15.663 4.66663 16.2989 4.93002 16.7678 5.39886C17.2366 5.8677 17.5 6.50358 17.5 7.16663V10.9166" stroke="black" stroke-linecap="round" stroke-linejoin="round"/>
<path d="M2.5 8.83337H17.5" stroke="black" stroke-linecap="round" stroke-linejoin="round"/>
<path d="M5.83325 13H5.84159" stroke="black" stroke-linecap="round" stroke-linejoin="round"/>
<path d="M9.16675 13H10.8334" stroke="black" stroke-linecap="round" stroke-linejoin="round"/>
<path d="M15.8333 17.1666L15.8333 12.1666" stroke="black" stroke-linecap="round" stroke-linejoin="round"/>
<path d="M13.3333 14.6666L15.8333 17.1666L18.3333 14.6666" stroke="black" stroke-linecap="round" stroke-linejoin="round"/>
</g>
<defs>
<clipPath id="clip0_4539_506">
<rect width="20" height="20" fill="white" transform="translate(0 0.5)"/>
</clipPath>
</defs>
</svg>
