<svg width="18" height="20" viewBox="0 0 18 20" fill="none" xmlns="http://www.w3.org/2000/svg">
<path d="M9 13C5.82993 13 3.0108 14.5306 1.216 16.906C0.829708 17.4172 0.636563 17.6728 0.642881 18.0183C0.647762 18.2852 0.815364 18.6219 1.02537 18.7867C1.29719 19 1.67387 19 2.42724 19H15.5728C16.3261 19 16.7028 19 16.9746 18.7867C17.1846 18.6219 17.3522 18.2852 17.3571 18.0183C17.3634 17.6728 17.1703 17.4172 16.784 16.906C14.9892 14.5306 12.1701 13 9 13Z" stroke="black" stroke-linecap="round" stroke-linejoin="round"/>
<path d="M9 10C11.4853 10 13.5 7.98528 13.5 5.5C13.5 3.01472 11.4853 1 9 1C6.51472 1 4.5 3.01472 4.5 5.5C4.5 7.98528 6.51472 10 9 10Z" stroke="black" stroke-linecap="round" stroke-linejoin="round"/>
</svg>
