<svg width="156" height="130" viewBox="0 0 156 130" fill="none" xmlns="http://www.w3.org/2000/svg">
<path d="M77.9992 65.9999V79.3332M77.9992 92.6666H78.0325M73.3836 48.9723L45.9673 96.3277C44.4466 98.9544 43.6863 100.268 43.7986 101.346C43.8967 102.286 44.3892 103.14 45.1538 103.696C46.0303 104.333 47.5478 104.333 50.5829 104.333H105.415C108.451 104.333 109.968 104.333 110.845 103.696C111.609 103.14 112.102 102.286 112.2 101.346C112.312 100.268 111.552 98.9544 110.031 96.3277L82.6148 48.9723C81.0996 46.3551 80.3419 45.0465 79.3535 44.607C78.4913 44.2236 77.507 44.2236 76.6449 44.607C75.6564 45.0465 74.8988 46.3551 73.3836 48.9723Z" stroke="#98A2B3" stroke-width="4" stroke-linecap="round" stroke-linejoin="round"/>
<rect x="2" y="2" width="152" height="126" rx="10" stroke="#98A2B3" stroke-width="4"/>
<rect x="4" y="20" width="148" height="5" fill="#98A2B3"/>
<rect x="19" y="10" width="41" height="4" rx="2" fill="#98A2B3"/>
<rect x="117" y="10" width="4" height="4" rx="2" fill="#98A2B3"/>
<rect x="126" y="10" width="4" height="4" rx="2" fill="#98A2B3"/>
<rect x="135" y="10" width="4" height="4" rx="2" fill="#98A2B3"/>
</svg>
