<svg width="22" height="19" viewBox="0 0 22 19" fill="none" xmlns="http://www.w3.org/2000/svg">
<path d="M10.9998 6.99999V11M10.9998 15H11.0098M9.61507 1.89171L1.39019 16.0983C0.933982 16.8863 0.70588 17.2803 0.739593 17.6037C0.768998 17.8857 0.916769 18.142 1.14613 18.3088C1.40908 18.5 1.86435 18.5 2.77487 18.5H19.2246C20.1352 18.5 20.5904 18.5 20.8534 18.3088C21.0827 18.142 21.2305 17.8857 21.2599 17.6037C21.2936 17.2803 21.0655 16.8863 20.6093 16.0983L12.3844 1.89171C11.9299 1.10654 11.7026 0.713963 11.4061 0.582109C11.1474 0.467096 10.8521 0.467096 10.5935 0.582109C10.2969 0.713963 10.0696 1.10655 9.61507 1.89171Z" stroke="#DC6803" stroke-linecap="round" stroke-linejoin="round"/>
</svg>
