<svg width="22" height="22" viewBox="0 0 22 22" fill="none" xmlns="http://www.w3.org/2000/svg">
<path d="M10 3H5.8C4.11984 3 3.27976 3 2.63803 3.32698C2.07354 3.6146 1.6146 4.07354 1.32698 4.63803C1 5.27976 1 6.11984 1 7.8V16.2C1 17.8802 1 18.7202 1.32698 19.362C1.6146 19.9265 2.07354 20.3854 2.63803 20.673C3.27976 21 4.11984 21 5.8 21H14.2C15.8802 21 16.7202 21 17.362 20.673C17.9265 20.3854 18.3854 19.9265 18.673 19.362C19 18.7202 19 17.8802 19 16.2V12M6.99997 15H8.67452C9.1637 15 9.40829 15 9.63846 14.9447C9.84254 14.8957 10.0376 14.8149 10.2166 14.7053C10.4184 14.5816 10.5914 14.4086 10.9373 14.0627L20.5 4.5C21.3284 3.67157 21.3284 2.32843 20.5 1.5C19.6716 0.671571 18.3284 0.67157 17.5 1.5L7.93723 11.0627C7.59133 11.4086 7.41838 11.5816 7.29469 11.7834C7.18504 11.9624 7.10423 12.1575 7.05523 12.3615C6.99997 12.5917 6.99997 12.8363 6.99997 13.3255V15Z" stroke="black" stroke-linecap="round" stroke-linejoin="round"/>
</svg>
